<svg xmlns="http://www.w3.org/2000/svg" width="1626" height="1243" viewBox="0 0 1625.7 1243.0" role="img" aria-label="Batmotrópicos Health Services">
  <title>Batmotrópicos Health Services</title>
  <g fill="none" stroke="#1A5C1A" stroke-width="13.51" stroke-linejoin="round" stroke-linecap="round" transform="translate(246.505,-93.527) scale(1.12593)">
    <path d="M 745 280 L 654 403 L 587 489 L 647 510 L 648 513 L 411 736 L 327 818 L 454 735 L 457 735 L 473 743 L 503 754 L 539 763 L 581 768 L 609 768 L 631 766 L 672 757 L 710 741 L 744 718 L 761 702 L 772 689 L 785 670 L 797 645 L 805 613 L 806 587 L 803 562 L 799 547 L 792 530 L 779 510 L 759 490 L 747 481 L 747 479 L 767 460 L 775 449 L 783 433 L 790 409 L 791 376 L 786 349 L 778 327 L 765 304 Z"/><path d="M 815 172 L 708 247 L 677 232 L 645 220 L 616 213 L 593 210 L 555 210 L 518 216 L 480 229 L 456 241 L 415 269 L 375 303 L 311 363 L 239 434 L 198 477 L 192 485 L 191 497 L 194 504 L 216 535 L 250 576 L 310 638 L 338 663 L 366 685 L 396 705 L 408 711 L 461 644 L 534 546 L 473 525 L 472 522 L 533 464 L 703 295 Z"/>
  </g>
  <path d="M104.1 1072.6205607476634V967.6205607476634H153.3Q172.2 967.6205607476634 182.1 975.0455607476633Q192.0 982.4705607476634 192.0 994.9205607476633Q192.0 1003.0205607476634 188.25 1008.9455607476634Q184.5 1014.8705607476634 178.5 1018.0205607476634Q186.89999999999998 1020.7205607476634 192.14999999999998 1027.3205607476634Q197.39999999999998 1033.9205607476633 197.39999999999998 1044.1205607476634Q197.39999999999998 1057.6205607476634 186.975 1065.1205607476634Q176.55 1072.6205607476634 156.3 1072.6205607476634ZM123.6 1057.3205607476634H155.1Q166.05 1057.3205607476634 171.9 1053.7205607476635Q177.75 1050.1205607476634 177.75 1042.1705607476633Q177.75 1034.3705607476634 171.9 1030.6955607476634Q166.05 1027.0205607476635 155.1 1027.0205607476635H123.6ZM123.6 1011.8705607476634H151.2Q161.39999999999998 1011.8705607476634 166.875 1008.2705607476634Q172.35 1004.6705607476633 172.35 997.4705607476634Q172.35 990.1205607476634 166.875 986.5205607476634Q161.39999999999998 982.9205607476633 151.2 982.9205607476633H123.6ZM207.39999999999998 1072.6205607476634 254.64999999999998 967.6205607476634H273.84999999999997L321.25 1072.6205607476634H300.84999999999997L290.34999999999997 1048.3205607476634H237.84999999999997L227.49999999999997 1072.6205607476634ZM244.45 1033.0205607476635H283.75L264.09999999999997 987.1205607476634ZM359.9 1072.6205607476634V984.1205607476634H325.1V967.6205607476634H414.2V984.1205607476634H379.4V1072.6205607476634ZM432.90000000000003 1072.6205607476634V967.6205607476634H448.95L490.65 1037.0705607476634L531.6 967.6205607476634H547.65L547.8 1072.6205607476634H529.35L529.2 1003.1705607476633L494.7 1060.6205607476634H486.0L451.5 1003.9205607476633V1072.6205607476634ZM629.1999999999999 1074.1205607476634Q617.05 1074.1205607476634 606.6999999999999 1070.0705607476634Q596.3499999999999 1066.0205607476635 588.6999999999999 1058.7455607476634Q581.05 1051.4705607476633 576.8499999999999 1041.6455607476632Q572.65 1031.8205607476634 572.65 1020.1205607476634Q572.65 1008.4205607476633 576.8499999999999 998.5955607476633Q581.05 988.7705607476634 588.6999999999999 981.4955607476634Q596.3499999999999 974.2205607476634 606.6999999999999 970.1705607476633Q617.05 966.1205607476634 629.1999999999999 966.1205607476634Q641.5 966.1205607476634 651.775 970.1705607476633Q662.05 974.2205607476634 669.6999999999999 981.4955607476634Q677.3499999999999 988.7705607476634 681.55 998.5955607476633Q685.75 1008.4205607476633 685.75 1020.1205607476634Q685.75 1031.8205607476634 681.55 1041.6455607476632Q677.3499999999999 1051.4705607476633 669.6999999999999 1058.7455607476634Q662.05 1066.0205607476635 651.775 1070.0705607476634Q641.5 1074.1205607476634 629.1999999999999 1074.1205607476634ZM629.1999999999999 1057.0205607476635Q639.8499999999999 1057.0205607476635 648.175 1052.2955607476633Q656.5 1047.5705607476634 661.3 1039.1705607476633Q666.0999999999999 1030.7705607476635 666.0999999999999 1020.1205607476634Q666.0999999999999 1009.4705607476634 661.3 1001.0705607476634Q656.5 992.6705607476633 648.175 987.9455607476634Q639.8499999999999 983.2205607476634 629.1999999999999 983.2205607476634Q618.55 983.2205607476634 610.2249999999999 987.9455607476634Q601.9 992.6705607476633 597.0999999999999 1001.0705607476634Q592.3 1009.4705607476634 592.3 1020.1205607476634Q592.3 1030.7705607476635 597.0999999999999 1039.1705607476633Q601.9 1047.5705607476634 610.2249999999999 1052.2955607476633Q618.55 1057.0205607476635 629.1999999999999 1057.0205607476635ZM731.7499999999999 1072.6205607476634V984.1205607476634H696.9499999999999V967.6205607476634H786.05V984.1205607476634H751.2499999999999V1072.6205607476634ZM804.7499999999999 1072.6205607476634V967.6205607476634H847.7999999999998Q868.7999999999998 967.6205607476634 880.7249999999999 977.5955607476634Q892.6499999999999 987.5705607476634 892.6499999999999 1004.9705607476634Q892.6499999999999 1016.9705607476634 886.7999999999998 1025.4455607476634Q880.9499999999998 1033.9205607476633 870.2999999999998 1038.2705607476635L894.4499999999998 1072.6205607476634H873.4499999999998L851.9999999999999 1041.8705607476634Q850.0499999999998 1042.0205607476635 847.9499999999998 1042.0205607476635H824.2499999999999V1072.6205607476634ZM824.2499999999999 1025.9705607476633H847.0499999999998Q859.9499999999998 1025.9705607476633 866.4749999999999 1020.4205607476633Q872.9999999999999 1014.8705607476634 872.9999999999999 1004.9705607476634Q872.9999999999999 995.0705607476634 866.4749999999999 989.5955607476634Q859.9499999999998 984.1205607476634 847.0499999999998 984.1205607476634H824.2499999999999ZM967.4499999999998 1074.1205607476634Q955.2999999999998 1074.1205607476634 944.9499999999998 1070.0705607476634Q934.5999999999998 1066.0205607476635 926.9499999999998 1058.7455607476634Q919.2999999999998 1051.4705607476633 915.0999999999999 1041.6455607476632Q910.8999999999999 1031.8205607476634 910.8999999999999 1020.1205607476634Q910.8999999999999 1008.4205607476633 915.0999999999999 998.5955607476633Q919.2999999999998 988.7705607476634 926.9499999999998 981.4955607476634Q934.5999999999998 974.2205607476634 944.9499999999998 970.1705607476633Q955.2999999999998 966.1205607476634 967.4499999999998 966.1205607476634Q979.7499999999999 966.1205607476634 990.0249999999999 970.1705607476633Q1000.2999999999998 974.2205607476634 1007.9499999999998 981.4955607476634Q1015.5999999999998 988.7705607476634 1019.7999999999997 998.5955607476633Q1023.9999999999998 1008.4205607476633 1023.9999999999998 1020.1205607476634Q1023.9999999999998 1031.8205607476634 1019.7999999999997 1041.6455607476632Q1015.5999999999998 1051.4705607476633 1007.9499999999998 1058.7455607476634Q1000.2999999999998 1066.0205607476635 990.0249999999999 1070.0705607476634Q979.7499999999999 1074.1205607476634 967.4499999999998 1074.1205607476634ZM967.4499999999998 1057.0205607476635Q978.0999999999998 1057.0205607476635 986.4249999999998 1052.2955607476633Q994.7499999999999 1047.5705607476634 999.5499999999998 1039.1705607476633Q1004.3499999999998 1030.7705607476635 1004.3499999999998 1020.1205607476634Q1004.3499999999998 1009.4705607476634 999.5499999999998 1001.0705607476634Q994.7499999999999 992.6705607476633 986.4249999999998 987.9455607476634Q978.0999999999998 983.2205607476634 967.4499999999998 983.2205607476634Q956.7999999999998 983.2205607476634 948.4749999999999 987.9455607476634Q940.1499999999999 992.6705607476633 935.3499999999999 1001.0705607476634Q930.5499999999998 1009.4705607476634 930.5499999999998 1020.1205607476634Q930.5499999999998 1030.7705607476635 935.3499999999999 1039.1705607476633Q940.1499999999999 1047.5705607476634 948.4749999999999 1052.2955607476633Q956.7999999999998 1057.0205607476635 967.4499999999998 1057.0205607476635ZM954.8499999999998 959.0705607476634 975.0999999999998 938.5205607476634H997.1499999999999L971.0499999999998 959.0705607476634ZM1048.6999999999998 1072.6205607476634V967.6205607476634H1091.8999999999999Q1105.6999999999998 967.6205607476634 1115.75 972.1205607476634Q1125.8 976.6205607476634 1131.1999999999998 985.0205607476634Q1136.6 993.4205607476633 1136.6 1004.9705607476634Q1136.6 1016.5205607476634 1131.1999999999998 1024.9205607476633Q1125.8 1033.3205607476634 1115.75 1037.8205607476634Q1105.6999999999998 1042.3205607476634 1091.8999999999999 1042.3205607476634H1068.1999999999998V1072.6205607476634ZM1068.1999999999998 1025.8205607476634H1091.0Q1103.8999999999999 1025.8205607476634 1110.4249999999997 1020.3455607476634Q1116.9499999999998 1014.8705607476634 1116.9499999999998 1004.9705607476634Q1116.9499999999998 995.0705607476634 1110.4249999999997 989.5955607476634Q1103.8999999999999 984.1205607476634 1091.0 984.1205607476634H1068.1999999999998ZM1161.6 1072.6205607476634V967.6205607476634H1181.1V1072.6205607476634ZM1262.05 1074.1205607476634Q1250.05 1074.1205607476634 1239.775 1070.1455607476632Q1229.5 1066.1705607476633 1221.925 1058.8955607476632Q1214.35 1051.6205607476634 1210.1499999999999 1041.7205607476635Q1205.9499999999998 1031.8205607476634 1205.9499999999998 1020.1205607476634Q1205.9499999999998 1008.4205607476633 1210.1499999999999 998.5205607476634Q1214.35 988.6205607476634 1221.925 981.3455607476634Q1229.5 974.0705607476634 1239.775 970.0955607476634Q1250.05 966.1205607476634 1262.1999999999998 966.1205607476634Q1275.1 966.1205607476634 1285.75 970.6205607476634Q1296.3999999999999 975.1205607476634 1303.75 983.6705607476633L1291.1499999999999 995.5205607476634Q1279.75 983.2205607476634 1263.1 983.2205607476634Q1252.1499999999999 983.2205607476634 1243.6749999999997 987.9455607476634Q1235.1999999999998 992.6705607476633 1230.3999999999999 1000.9955607476634Q1225.6 1009.3205607476634 1225.6 1020.1205607476634Q1225.6 1030.9205607476633 1230.3999999999999 1039.2455607476634Q1235.1999999999998 1047.5705607476634 1243.6749999999997 1052.2955607476633Q1252.1499999999999 1057.0205607476635 1263.1 1057.0205607476635Q1279.8999999999999 1057.0205607476635 1291.1499999999999 1044.5705607476634L1303.75 1056.5705607476634Q1296.3999999999999 1065.1205607476634 1285.75 1069.6205607476634Q1275.1 1074.1205607476634 1262.05 1074.1205607476634ZM1374.2 1074.1205607476634Q1362.05 1074.1205607476634 1351.6999999999998 1070.0705607476634Q1341.35 1066.0205607476635 1333.6999999999998 1058.7455607476634Q1326.05 1051.4705607476633 1321.85 1041.6455607476632Q1317.6499999999999 1031.8205607476634 1317.6499999999999 1020.1205607476634Q1317.6499999999999 1008.4205607476633 1321.85 998.5955607476633Q1326.05 988.7705607476634 1333.6999999999998 981.4955607476634Q1341.35 974.2205607476634 1351.6999999999998 970.1705607476633Q1362.05 966.1205607476634 1374.2 966.1205607476634Q1386.5 966.1205607476634 1396.775 970.1705607476633Q1407.05 974.2205607476634 1414.6999999999998 981.4955607476634Q1422.35 988.7705607476634 1426.55 998.5955607476633Q1430.75 1008.4205607476633 1430.75 1020.1205607476634Q1430.75 1031.8205607476634 1426.55 1041.6455607476632Q1422.35 1051.4705607476633 1414.6999999999998 1058.7455607476634Q1407.05 1066.0205607476635 1396.775 1070.0705607476634Q1386.5 1074.1205607476634 1374.2 1074.1205607476634ZM1374.2 1057.0205607476635Q1384.85 1057.0205607476635 1393.175 1052.2955607476633Q1401.5 1047.5705607476634 1406.3 1039.1705607476633Q1411.1 1030.7705607476635 1411.1 1020.1205607476634Q1411.1 1009.4705607476634 1406.3 1001.0705607476634Q1401.5 992.6705607476633 1393.175 987.9455607476634Q1384.85 983.2205607476634 1374.2 983.2205607476634Q1363.55 983.2205607476634 1355.225 987.9455607476634Q1346.8999999999999 992.6705607476633 1342.1 1001.0705607476634Q1337.3 1009.4705607476634 1337.3 1020.1205607476634Q1337.3 1030.7705607476635 1342.1 1039.1705607476633Q1346.8999999999999 1047.5705607476634 1355.225 1052.2955607476633Q1363.55 1057.0205607476635 1374.2 1057.0205607476635ZM1488.0 1074.1205607476634Q1475.6999999999998 1074.1205607476634 1464.4499999999998 1070.5955607476635Q1453.1999999999998 1067.0705607476634 1446.6 1061.5205607476635L1453.35 1046.3705607476634Q1459.6499999999999 1051.4705607476633 1468.9499999999998 1054.6955607476634Q1478.25 1057.9205607476633 1488.0 1057.9205607476633Q1500.3 1057.9205607476633 1505.775 1054.0205607476632Q1511.25 1050.1205607476634 1511.25 1044.2705607476635Q1511.25 1039.4705607476633 1507.875 1036.5455607476633Q1504.5 1033.6205607476634 1498.9499999999998 1031.8955607476632Q1493.3999999999999 1030.1705607476633 1486.725 1028.6705607476633Q1480.05 1027.1705607476633 1473.375 1025.1455607476632Q1466.6999999999998 1023.1205607476634 1461.1499999999999 1019.8955607476634Q1455.6 1016.6705607476633 1452.225 1011.2705607476634Q1448.85 1005.8705607476634 1448.85 997.4705607476634Q1448.85 988.9205607476633 1453.425 981.7955607476633Q1458.0 974.6705607476633 1467.375 970.3955607476634Q1476.75 966.1205607476634 1491.1499999999999 966.1205607476634Q1500.6 966.1205607476634 1509.8999999999999 968.5205607476634Q1519.1999999999998 970.9205607476633 1526.1 975.4205607476633L1519.9499999999998 990.5705607476634Q1512.8999999999999 986.3705607476634 1505.3999999999999 984.3455607476634Q1497.8999999999999 982.3205607476634 1491.0 982.3205607476634Q1478.85 982.3205607476634 1473.5249999999999 986.5205607476635Q1468.1999999999998 990.7205607476634 1468.1999999999998 996.5705607476634Q1468.1999999999998 1001.3705607476634 1471.5749999999998 1004.2205607476634Q1474.9499999999998 1007.0705607476634 1480.5 1008.8705607476634Q1486.05 1010.6705607476633 1492.725 1012.0955607476633Q1499.3999999999999 1013.5205607476634 1506.0 1015.4705607476633Q1512.6 1017.4205607476633 1518.1499999999999 1020.7205607476634Q1523.6999999999998 1024.0205607476635 1527.0749999999998 1029.3455607476635Q1530.4499999999998 1034.6705607476633 1530.4499999999998 1042.9205607476633Q1530.4499999999998 1051.3205607476634 1525.875 1058.4455607476634Q1521.3 1065.5705607476634 1511.85 1069.8455607476635Q1502.3999999999999 1074.1205607476634 1488.0 1074.1205607476634Z" fill="#1A5C1A"/>
  <path d="M484.8939999999999 1153.0205607476635V1136.7965607476635H463.9899999999999V1153.0205607476635H458.78999999999985V1116.6205607476634H463.9899999999999V1132.2725607476634H484.8939999999999V1116.6205607476634H490.0939999999999V1153.0205607476635ZM517.0139999999999 1153.0205607476635V1116.6205607476634H542.7019999999999V1121.1445607476635H522.2139999999998V1132.3245607476636H540.4659999999999V1136.7445607476634H522.2139999999998V1148.4965607476636H543.4299999999998V1153.0205607476635ZM562.3419999999999 1153.0205607476635 578.8259999999999 1116.6205607476634H583.9739999999999L600.5099999999999 1153.0205607476635H595.0499999999998L591.0459999999999 1143.9205607476636H571.7019999999999L567.6979999999999 1153.0205607476635ZM573.5219999999999 1139.7605607476635H589.2259999999999L581.3739999999999 1121.9245607476635ZM621.9179999999999 1153.0205607476635V1116.6205607476634H627.1179999999998V1148.4965607476636H646.8259999999999V1153.0205607476635ZM676.0339999999999 1153.0205607476635V1121.1445607476635H663.5539999999999V1116.6205607476634H693.6619999999999V1121.1445607476635H681.1819999999999V1153.0205607476635ZM741.4339999999999 1153.0205607476635V1136.7965607476635H720.5299999999999V1153.0205607476635H715.3299999999999V1116.6205607476634H720.5299999999999V1132.2725607476634H741.4339999999999V1116.6205607476634H746.6339999999999V1153.0205607476635ZM814.1499999999999 1153.4365607476634Q809.9899999999999 1153.4365607476634 806.194 1152.1625607476635Q802.3979999999999 1150.8885607476634 800.2139999999998 1148.8605607476634L802.1379999999999 1144.8045607476636Q804.1659999999998 1146.6245607476635 807.4159999999998 1147.8205607476634Q810.6659999999998 1149.0165607476636 814.1499999999999 1149.0165607476636Q818.8299999999999 1149.0165607476636 820.9879999999998 1147.4045607476635Q823.1459999999998 1145.7925607476634 823.1459999999998 1143.4005607476636Q823.1459999999998 1141.5285607476635 821.9499999999998 1140.3845607476635Q820.7539999999999 1139.2405607476635 818.7779999999999 1138.5385607476635Q816.8019999999999 1137.8365607476635 814.4619999999999 1137.3165607476635Q812.1219999999998 1136.7965607476635 809.7559999999999 1136.1205607476636Q807.3899999999999 1135.4445607476634 805.4399999999998 1134.3265607476635Q803.4899999999999 1133.2085607476636 802.2939999999999 1131.3625607476636Q801.0979999999998 1129.5165607476636 801.0979999999998 1126.6045607476635Q801.0979999999998 1123.7965607476635 802.5799999999999 1121.4305607476635Q804.0619999999999 1119.0645607476636 807.156 1117.6345607476635Q810.2499999999999 1116.2045607476634 815.0339999999999 1116.2045607476634Q818.2579999999999 1116.2045607476634 821.3519999999999 1117.0365607476633Q824.4459999999999 1117.8685607476634 826.7339999999999 1119.4285607476634L825.0179999999999 1123.5885607476635Q822.6779999999999 1122.0805607476634 820.0519999999999 1121.3525607476636Q817.4259999999999 1120.6245607476635 815.0339999999999 1120.6245607476635Q810.4059999999998 1120.6245607476635 808.2999999999998 1122.3145607476636Q806.1939999999998 1124.0045607476634 806.1939999999998 1126.3965607476634Q806.1939999999998 1128.3205607476634 807.3899999999999 1129.4645607476634Q808.5859999999999 1130.6085607476634 810.5619999999999 1131.2845607476634Q812.5379999999999 1131.9605607476635 814.8779999999999 1132.5065607476636Q817.2179999999998 1133.0525607476634 819.5839999999998 1133.7285607476633Q821.9499999999999 1134.4045607476635 823.8999999999999 1135.4965607476634Q825.8499999999999 1136.5885607476635 827.0459999999998 1138.4085607476636Q828.2419999999998 1140.2285607476636 828.2419999999998 1143.0885607476635Q828.2419999999998 1145.8445607476635 826.7339999999999 1148.2105607476635Q825.2259999999999 1150.5765607476635 822.0799999999999 1152.0065607476636Q818.9339999999999 1153.4365607476634 814.1499999999999 1153.4365607476634ZM851.834 1153.0205607476635V1116.6205607476634H877.5219999999999V1121.1445607476635H857.0339999999999V1132.3245607476636H875.286V1136.7445607476634H857.0339999999999V1148.4965607476636H878.2499999999999V1153.0205607476635ZM902.674 1153.0205607476635V1116.6205607476634H916.8699999999999Q923.9419999999999 1116.6205607476634 927.9979999999999 1120.0005607476633Q932.054 1123.3805607476634 932.054 1129.3085607476635Q932.054 1133.5725607476634 929.9739999999999 1136.5105607476635Q927.8939999999999 1139.4485607476636 924.0459999999999 1140.8005607476634L932.6779999999999 1153.0205607476635H927.01L919.1579999999999 1141.8405607476634Q918.0659999999999 1141.9445607476634 916.8699999999999 1141.9445607476634H907.8739999999999V1153.0205607476635ZM907.8739999999999 1137.5245607476634H916.7139999999999Q921.7059999999999 1137.5245607476634 924.28 1135.3665607476635Q926.8539999999999 1133.2085607476636 926.8539999999999 1129.3085607476635Q926.8539999999999 1125.4085607476634 924.28 1123.2765607476636Q921.7059999999999 1121.1445607476635 916.7139999999999 1121.1445607476635H907.8739999999999ZM966.982 1153.0205607476635 950.9659999999999 1116.6205607476634H956.5819999999999L969.6859999999999 1146.5725607476634L982.8939999999999 1116.6205607476634H988.0939999999999L972.1299999999999 1153.0205607476635ZM1009.502 1153.0205607476635V1116.6205607476634H1014.7019999999999V1153.0205607476635ZM1057.898 1153.4365607476634Q1053.7899999999997 1153.4365607476634 1050.2799999999997 1152.0585607476635Q1046.7699999999998 1150.6805607476635 1044.1699999999996 1148.1585607476636Q1041.5699999999997 1145.6365607476635 1040.1139999999998 1142.2565607476636Q1038.658 1138.8765607476635 1038.658 1134.8205607476634Q1038.658 1130.7645607476634 1040.1139999999998 1127.3845607476633Q1041.5699999999997 1124.0045607476634 1044.1699999999996 1121.4825607476635Q1046.7699999999998 1118.9605607476635 1050.2799999999997 1117.5825607476636Q1053.7899999999997 1116.2045607476634 1057.9499999999998 1116.2045607476634Q1062.1619999999998 1116.2045607476634 1065.7239999999997 1117.6345607476635Q1069.2859999999998 1119.0645607476636 1071.7819999999997 1121.8725607476636L1068.4019999999998 1125.1485607476634Q1066.322 1122.9645607476634 1063.7219999999998 1121.8985607476634Q1061.1219999999998 1120.8325607476634 1058.158 1120.8325607476634Q1054.0499999999997 1120.8325607476634 1050.8259999999998 1122.6525607476633Q1047.6019999999999 1124.4725607476635 1045.7299999999998 1127.6185607476634Q1043.8579999999997 1130.7645607476634 1043.8579999999997 1134.8205607476634Q1043.8579999999997 1138.8765607476635 1045.7299999999998 1142.0225607476634Q1047.6019999999999 1145.1685607476634 1050.8259999999998 1146.9885607476635Q1054.0499999999997 1148.8085607476635 1058.158 1148.8085607476635Q1061.1219999999998 1148.8085607476635 1063.7219999999998 1147.7425607476634Q1066.322 1146.6765607476634 1068.4019999999998 1144.4405607476635L1071.7819999999997 1147.7165607476634Q1069.2859999999998 1150.5245607476634 1065.7239999999997 1151.9805607476633Q1062.1619999999998 1153.4365607476634 1057.898 1153.4365607476634ZM1094.6979999999999 1153.0205607476635V1116.6205607476634H1120.3859999999997V1121.1445607476635H1099.898V1132.3245607476636H1118.1499999999999V1136.7445607476634H1099.898V1148.4965607476636H1121.1139999999998V1153.0205607476635ZM1156.1459999999997 1153.4365607476634Q1151.9859999999996 1153.4365607476634 1148.1899999999996 1152.1625607476635Q1144.3939999999998 1150.8885607476634 1142.2099999999998 1148.8605607476634L1144.1339999999998 1144.8045607476636Q1146.1619999999998 1146.6245607476635 1149.4119999999998 1147.8205607476634Q1152.6619999999998 1149.0165607476636 1156.1459999999997 1149.0165607476636Q1160.8259999999998 1149.0165607476636 1162.984 1147.4045607476635Q1165.1419999999998 1145.7925607476634 1165.1419999999998 1143.4005607476636Q1165.1419999999998 1141.5285607476635 1163.946 1140.3845607476635Q1162.7499999999998 1139.2405607476635 1160.774 1138.5385607476635Q1158.7979999999998 1137.8365607476635 1156.4579999999996 1137.3165607476635Q1154.1179999999997 1136.7965607476635 1151.7519999999997 1136.1205607476636Q1149.3859999999997 1135.4445607476634 1147.4359999999997 1134.3265607476635Q1145.4859999999996 1133.2085607476636 1144.2899999999997 1131.3625607476636Q1143.0939999999998 1129.5165607476636 1143.0939999999998 1126.6045607476635Q1143.0939999999998 1123.7965607476635 1144.5759999999998 1121.4305607476635Q1146.0579999999998 1119.0645607476636 1149.1519999999996 1117.6345607476635Q1152.2459999999996 1116.2045607476634 1157.0299999999997 1116.2045607476634Q1160.2539999999997 1116.2045607476634 1163.3479999999997 1117.0365607476633Q1166.4419999999998 1117.8685607476634 1168.7299999999998 1119.4285607476634L1167.0139999999997 1123.5885607476635Q1164.6739999999998 1122.0805607476634 1162.0479999999998 1121.3525607476636Q1159.4219999999998 1120.6245607476635 1157.0299999999997 1120.6245607476635Q1152.4019999999998 1120.6245607476635 1150.2959999999998 1122.3145607476636Q1148.1899999999998 1124.0045607476634 1148.1899999999998 1126.3965607476634Q1148.1899999999998 1128.3205607476634 1149.3859999999997 1129.4645607476634Q1150.5819999999997 1130.6085607476634 1152.5579999999995 1131.2845607476634Q1154.5339999999997 1131.9605607476635 1156.8739999999998 1132.5065607476636Q1159.2139999999997 1133.0525607476634 1161.5799999999997 1133.7285607476633Q1163.9459999999997 1134.4045607476635 1165.8959999999997 1135.4965607476634Q1167.8459999999998 1136.5885607476635 1169.042 1138.4085607476636Q1170.2379999999998 1140.2285607476636 1170.2379999999998 1143.0885607476635Q1170.2379999999998 1145.8445607476635 1168.7299999999998 1148.2105607476635Q1167.2219999999998 1150.5765607476635 1164.0759999999998 1152.0065607476636Q1160.9299999999998 1153.4365607476634 1156.1459999999997 1153.4365607476634Z" fill="#1A5C1A"/>
  <line x1="257.3" y1="1134.8" x2="407.3" y2="1134.8" stroke="#1A5C1A" stroke-width="6.0" stroke-linecap="round"/><line x1="1218.4" y1="1134.8" x2="1368.4" y2="1134.8" stroke="#1A5C1A" stroke-width="6.0" stroke-linecap="round"/>
</svg>